<svg id="Layer_1" data-name="Layer 1" xmlns="http://www.w3.org/2000/svg" viewBox="0 0 55.99 67.67">
    <defs>
        <style>.cls-1{fill:red}</style>
        <linearGradient id="grad1" x1="0%" y1="0%" x2="100%" y2="0%">
            <stop offset="0%" style="stop-color:rgb(255,255,0);stop-opacity:1" />
            <stop offset="100%" style="stop-color:rgb(255,0,0);stop-opacity:1" />
        </linearGradient>
    </defs>
    <title>Ufi_Logomarks</title>
    <path class="cls-1" d="M55,0a15.1,15.1,0,0,0-15.1,15.1V39.76A14.73,14.73,0,0,1,39,44.91,12.25,12.25,0,0,1,36.56,49a11.38,11.38,0,0,1-3.73,2.65,11.65,11.65,0,0,1-4.73,1,11.85,11.85,0,0,1-4.79-1A11.11,11.11,0,0,1,19.54,49a12.23,12.23,0,0,1-2.45-4.05,14.5,14.5,0,0,1-.89-5.15V1.06a1,1,0,0,0-1-1A15.1,15.1,0,0,0,.05,15.11V40.3a35,35,0,0,0,.3,4.63,30,30,0,0,0,1.48,6.2,24.31,24.31,0,0,0,5.33,8.68A24.62,24.62,0,0,0,16,65.57,33.24,33.24,0,0,0,28.1,67.62a33,33,0,0,0,12-2.05,24.57,24.57,0,0,0,8.81-5.76,24.14,24.14,0,0,0,5.33-8.68,30.38,30.38,0,0,0,1.54-6.66,35.41,35.41,0,0,0,.24-4.17V1.06A1,1,0,0,0,55,0Z"/>
</svg>